<svg width="475px" height="100px"
  xmlns="http://www.w3.org/2000/svg" viewBox="100 50 300 50" style="background: rgba(0, 0, 0, 0);" preserveAspectRatio="xMidYMid">
  <g>
    <g transform="translate(112.86138212680817, 97.75)">
      <path d="M23.87 0L1.86 0L1.86-44.22L25.09-44.22L25.09-44.22Q36.54-44.22 41.92-40.48L41.92-40.48L41.92-40.48Q47.30-36.74 47.30-27.52L47.30-27.52L47.30-27.52Q47.30-20.16 43.20-16.51L43.20-16.51L43.20-16.51Q39.68-13.38 31.81-12.61L31.81-12.61L31.81-12.61Q28.48-12.29 23.87-12.29L23.87-12.29L23.87 0ZM23.87-25.60L23.87-19.01L25.73-19.01L25.73-19.01Q26.50-19.01 27.01-19.52L27.01-19.52L27.01-19.52Q27.52-20.03 27.52-20.86L27.52-20.86L27.52-23.81L27.52-23.81Q27.52-24.64 27.01-25.12L27.01-25.12L27.01-25.12Q26.50-25.60 25.73-25.60L25.73-25.60L23.87-25.60ZM71.23-44.86L71.23-44.86L76.54-44.86L76.54-44.86Q88.06-44.86 93.31-39.42L93.31-39.42L93.31-39.42Q98.56-33.98 98.56-22.34L98.56-22.34L98.56-22.34Q98.56-10.69 93.28-5.02L93.28-5.02L93.28-5.02Q88 0.64 76.54 0.64L76.54 0.64L71.23 0.64L71.23 0.64Q59.78 0.64 54.46-5.02L54.46-5.02L54.46-5.02Q49.15-10.69 49.15-22.34L49.15-22.34L49.15-22.34Q49.15-33.98 54.43-39.42L54.43-39.42L54.43-39.42Q59.71-44.86 71.23-44.86ZM72.06-23.81L72.06-23.81L72.06-16.38L72.06-16.38Q72.06-15.55 72.54-15.04L72.54-15.04L72.54-15.04Q73.02-14.53 73.82-14.53L73.82-14.53L73.82-14.53Q74.62-14.53 75.17-15.04L75.17-15.04L75.17-15.04Q75.71-15.55 75.71-16.38L75.71-16.38L75.71-23.81L75.71-23.81Q75.71-24.58 75.17-25.09L75.17-25.09L75.17-25.09Q74.62-25.60 73.82-25.60L73.82-25.60L73.82-25.60Q73.02-25.60 72.54-25.09L72.54-25.09L72.54-25.09Q72.06-24.58 72.06-23.81ZM122.50-44.86L122.50-44.86L127.81-44.86L127.81-44.86Q139.33-44.86 144.58-39.42L144.58-39.42L144.58-39.42Q149.82-33.98 149.82-22.34L149.82-22.34L149.82-22.34Q149.82-10.69 144.54-5.02L144.54-5.02L144.54-5.02Q139.26 0.64 127.81 0.64L127.81 0.64L122.50 0.64L122.50 0.64Q111.04 0.64 105.73-5.02L105.73-5.02L105.73-5.02Q100.42-10.69 100.42-22.34L100.42-22.34L100.42-22.34Q100.42-33.98 105.70-39.42L105.70-39.42L105.70-39.42Q110.98-44.86 122.50-44.86ZM123.33-23.81L123.33-23.81L123.33-16.38L123.33-16.38Q123.33-15.55 123.81-15.04L123.81-15.04L123.81-15.04Q124.29-14.53 125.09-14.53L125.09-14.53L125.09-14.53Q125.89-14.53 126.43-15.04L126.43-15.04L126.43-15.04Q126.98-15.55 126.98-16.38L126.98-16.38L126.98-23.81L126.98-23.81Q126.98-24.58 126.43-25.09L126.43-25.09L126.43-25.09Q125.89-25.60 125.09-25.60L125.09-25.60L125.09-25.60Q124.29-25.60 123.81-25.09L123.81-25.09L123.81-25.09Q123.33-24.58 123.33-23.81ZM174.66 0L152.64 0L152.64-44.22L175.87-44.22L175.87-44.22Q187.33-44.22 192.70-40.48L192.70-40.48L192.70-40.48Q198.08-36.74 198.08-27.52L198.08-27.52L198.08-27.52Q198.08-20.16 193.98-16.51L193.98-16.51L193.98-16.51Q190.46-13.38 182.59-12.61L182.59-12.61L182.59-12.61Q179.26-12.29 174.66-12.29L174.66-12.29L174.66 0ZM174.66-25.60L174.66-19.01L176.51-19.01L176.51-19.01Q177.28-19.01 177.79-19.52L177.79-19.52L177.79-19.52Q178.30-20.03 178.30-20.86L178.30-20.86L178.30-23.81L178.30-23.81Q178.30-24.64 177.79-25.12L177.79-25.12L177.79-25.12Q177.28-25.60 176.51-25.60L176.51-25.60L174.66-25.60ZM239.94-31.04L239.94-31.04L239.94-31.04Q239.94-28.54 239.17-26.50L239.17-26.50L239.17-26.50Q237.95-23.30 236.54-22.72L236.54-22.72L236.54-22.72Q237.12-22.53 238.02-21.57L238.02-21.57L238.02-21.57Q238.91-20.61 239.42-19.65L239.42-19.65L239.42-19.65Q240.77-17.15 240.77-12.99L240.77-12.99L240.77-12.99Q240.77 0.58 218.37 0.58L218.37 0.58L218.37 0.58Q212.99 0.58 208.61-0.22L208.61-0.22L208.61-0.22Q204.22-1.02 202.56-1.79L202.56-1.79L200.90-2.62L202.24-17.41L202.24-17.41Q204.99-16.45 208.22-16.45L208.22-16.45L208.22-16.45Q211.46-16.45 212.90-16.70L212.90-16.70L212.90-16.70Q214.34-16.96 215.04-17.34L215.04-17.34L215.04-17.34Q216.26-18.05 216.51-19.01L216.51-19.01L206.08-18.88L206.08-23.23L216.51-23.04L216.51-23.04Q216.51-24.58 213.25-25.34L213.25-25.34L213.25-25.34Q211.97-25.60 210.05-25.60L210.05-25.60L210.05-25.60Q206.40-25.60 204.22-25.09L204.22-25.09L203.58-24.90L200.96-41.34L200.96-41.34Q201.73-41.73 203.17-42.30L203.17-42.30L203.17-42.30Q204.61-42.88 209.86-43.81L209.86-43.81L209.86-43.81Q215.10-44.74 221.12-44.74L221.12-44.74L221.12-44.74Q230.66-44.74 235.30-41.18L235.30-41.18L235.30-41.18Q239.94-37.63 239.94-31.04ZM263.55-18.37L263.55 0L244.48 0L244.48-37.82L260.54-37.82L261.18-33.15L261.18-33.15Q261.31-33.34 261.50-33.66L261.50-33.66L261.50-33.66Q261.70-33.98 262.59-34.78L262.59-34.78L262.59-34.78Q263.49-35.58 264.64-36.22L264.64-36.22L264.64-36.22Q267.84-37.82 272.70-37.82L272.70-37.82L272.70-17.47L263.55-18.37Z" fill="oklch(76% 0.233 130.85)" stroke="black" stroke-width="2"></path>
    </g>
  </g>
</svg>