<?xml version="1.0" encoding="UTF-8" standalone="no" ?>
<!DOCTYPE svg PUBLIC "-//W3C//DTD SVG 1.1//EN" "http://www.w3.org/Graphics/SVG/1.1/DTD/svg11.dtd">
<svg xmlns="http://www.w3.org/2000/svg" xmlns:xlink="http://www.w3.org/1999/xlink" version="1.1" width="1080" height="1920" viewBox="0 0 1080 1920" xml:space="preserve">
<desc>Created with Fabric.js 5.2.4</desc>
<defs>
</defs>
<rect x="0" y="0" width="100%" height="100%" fill="transparent"></rect>
<g transform="matrix(1 0 0 1 540 960)" id="0edbfc7e-7dda-47ca-a424-d601a6fc9649"  >
<rect style="stroke: none; stroke-width: 1; stroke-dasharray: none; stroke-linecap: butt; stroke-dashoffset: 0; stroke-linejoin: miter; stroke-miterlimit: 4; fill: rgb(255,255,255); fill-rule: nonzero; opacity: 1; visibility: hidden;" vector-effect="non-scaling-stroke"  x="-540" y="-960" rx="0" ry="0" width="1080" height="1920" />
</g>
<g transform="matrix(Infinity NaN NaN Infinity 0 0)" id="061436ff-e5f5-4392-ade1-baf4c71cfb42"  >
</g>
<g transform="matrix(0.26 0.08 -0.08 0.26 836.44 243.22)"  >
<g style="" vector-effect="non-scaling-stroke"   >
		<g transform="matrix(0.13 0 0 -0.13 187.54 -784.61)"  >
<path style="stroke: none; stroke-width: 1; stroke-dasharray: none; stroke-linecap: butt; stroke-dashoffset: 0; stroke-linejoin: miter; stroke-miterlimit: 4; fill: rgb(0,0,0); fill-rule: nonzero; opacity: 1;" vector-effect="non-scaling-stroke"  transform=" translate(-4764.39, -12286.55)" d="M 4753 12785 C 4575 12730 4434 12528 4399 12277 C 4371 12078 4453 11860 4579 11798 C 4649 11763 4746 11766 4824 11804 C 4903 11843 4996 11937 5042 12025 C 5181 12292 5163 12586 4999 12734 C 4927 12799 4849 12815 4753 12785 z" stroke-linecap="round" />
</g>
		<g transform="matrix(0.13 0 0 -0.13 294.29 -728.45)"  >
<path style="stroke: none; stroke-width: 1; stroke-dasharray: none; stroke-linecap: butt; stroke-dashoffset: 0; stroke-linejoin: miter; stroke-miterlimit: 4; fill: rgb(0,0,0); fill-rule: nonzero; opacity: 1;" vector-effect="non-scaling-stroke"  transform=" translate(-5564.98, -11865.33)" d="M 5589 12311 C 5430 12260 5272 12116 5188 11945 C 5149 11866 5135 11802 5135 11705 C 5135 11623 5138 11608 5168 11548 C 5226 11429 5292 11394 5442 11403 C 5518 11407 5539 11413 5617 11450 C 5690 11485 5720 11508 5790 11579 C 5878 11667 5923 11738 5971 11865 C 6001 11944 6003 12071 5976 12150 C 5950 12224 5873 12302 5808 12318 C 5742 12335 5655 12332 5589 12311 z" stroke-linecap="round" />
</g>
		<g transform="matrix(0.13 0 0 -0.13 68.88 -724.43)"  >
<path style="stroke: none; stroke-width: 1; stroke-dasharray: none; stroke-linecap: butt; stroke-dashoffset: 0; stroke-linejoin: miter; stroke-miterlimit: 4; fill: rgb(0,0,0); fill-rule: nonzero; opacity: 1;" vector-effect="non-scaling-stroke"  transform=" translate(-3874.42, -11835.13)" d="M 3797 12306 C 3693 12269 3599 12140 3555 11975 C 3536 11903 3533 11745 3550 11675 C 3583 11541 3686 11398 3776 11364 C 3868 11329 3991 11368 4070 11457 C 4161 11560 4210 11700 4210 11855 C 4210 12120 4071 12321 3890 12319 C 3860 12319 3818 12313 3797 12306 z" stroke-linecap="round" />
</g>
		<g transform="matrix(0.13 0 0 -0.13 128.05 -552.8)"  >
<path style="stroke: none; stroke-width: 1; stroke-dasharray: none; stroke-linecap: butt; stroke-dashoffset: 0; stroke-linejoin: miter; stroke-miterlimit: 4; fill: rgb(0,0,0); fill-rule: nonzero; opacity: 1;" vector-effect="non-scaling-stroke"  transform=" translate(-4318.2, -10547.96)" d="M 4325 11339 C 4187 11318 4022 11247 3857 11136 C 3673 11013 3503 10839 3475 10747 C 3432 10603 3489 10466 3619 10401 C 3687 10367 3769 10346 3915 10325 C 4065 10303 4144 10285 4219 10255 C 4341 10205 4398 10157 4546 9980 C 4609 9904 4678 9830 4699 9816 C 4817 9734 4968 9728 5049 9803 C 5148 9895 5192 10098 5170 10370 C 5147 10666 5112 10817 5028 10990 C 4966 11118 4886 11204 4773 11263 C 4648 11329 4462 11360 4325 11339 z" stroke-linecap="round" />
</g>
		<g transform="matrix(0.13 0 0 -0.13 314.68 -599.95)"  >
<path style="stroke: none; stroke-width: 1; stroke-dasharray: none; stroke-linecap: butt; stroke-dashoffset: 0; stroke-linejoin: miter; stroke-miterlimit: 4; fill: rgb(0,0,0); fill-rule: nonzero; opacity: 1;" vector-effect="non-scaling-stroke"  transform=" translate(-5717.91, -10901.55)" d="M 5752 11296 C 5646 11270 5551 11214 5459 11121 C 5345 11006 5299 10917 5292 10800 C 5286 10695 5302 10642 5356 10581 C 5389 10544 5413 10529 5457 10514 C 5684 10440 5975 10591 6103 10849 C 6143 10930 6145 10937 6145 11029 C 6145 11117 6142 11130 6115 11179 C 6098 11209 6069 11243 6049 11257 C 5974 11306 5859 11321 5752 11296 z" stroke-linecap="round" />
</g>
		<g transform="matrix(0.13 0 0 -0.13 263.4 -211.88)"  >
<path style="stroke: none; stroke-width: 1; stroke-dasharray: none; stroke-linecap: butt; stroke-dashoffset: 0; stroke-linejoin: miter; stroke-miterlimit: 4; fill: rgb(0,0,0); fill-rule: nonzero; opacity: 1;" vector-effect="non-scaling-stroke"  transform=" translate(-5333.34, -7991.07)" d="M 5350 8496 C 5265 8478 5221 8452 5150 8380 C 5078 8308 5016 8196 4984 8080 C 4958 7988 4958 7805 4984 7730 C 5021 7619 5088 7529 5155 7499 C 5220 7469 5312 7474 5388 7510 C 5642 7630 5781 8051 5655 8317 C 5586 8465 5484 8524 5350 8496 z" stroke-linecap="round" />
</g>
		<g transform="matrix(0.13 0 0 -0.13 370.04 -155.59)"  >
<path style="stroke: none; stroke-width: 1; stroke-dasharray: none; stroke-linecap: butt; stroke-dashoffset: 0; stroke-linejoin: miter; stroke-miterlimit: 4; fill: rgb(0,0,0); fill-rule: nonzero; opacity: 1;" vector-effect="non-scaling-stroke"  transform=" translate(-6133.1, -7568.85)" d="M 6210 8030 C 5993 7991 5769 7766 5714 7533 C 5693 7443 5699 7332 5730 7262 C 5763 7186 5834 7125 5907 7110 C 6144 7060 6424 7261 6535 7561 C 6586 7696 6570 7846 6495 7944 C 6443 8012 6318 8050 6210 8030 z" stroke-linecap="round" />
</g>
		<g transform="matrix(0.13 0 0 -0.13 144.38 -152.29)"  >
<path style="stroke: none; stroke-width: 1; stroke-dasharray: none; stroke-linecap: butt; stroke-dashoffset: 0; stroke-linejoin: miter; stroke-miterlimit: 4; fill: rgb(0,0,0); fill-rule: nonzero; opacity: 1;" vector-effect="non-scaling-stroke"  transform=" translate(-4440.68, -7544.12)" d="M 4390 8021 C 4196 7958 4064 7662 4114 7405 C 4143 7260 4229 7126 4326 7079 C 4364 7061 4383 7058 4438 7062 C 4518 7068 4570 7092 4626 7152 C 4721 7250 4770 7373 4777 7530 C 4785 7687 4745 7822 4658 7932 C 4605 7999 4465 8046 4390 8021 z" stroke-linecap="round" />
</g>
		<g transform="matrix(0.13 0 0 -0.13 -273.67 -81.86)"  >
<path style="stroke: none; stroke-width: 1; stroke-dasharray: none; stroke-linecap: butt; stroke-dashoffset: 0; stroke-linejoin: miter; stroke-miterlimit: 4; fill: rgb(0,0,0); fill-rule: nonzero; opacity: 1;" vector-effect="non-scaling-stroke"  transform=" translate(-1305.32, -7015.91)" d="M 1310 7517 C 1188 7482 1091 7397 1023 7264 C 906 7038 905 6794 1021 6621 C 1080 6532 1131 6505 1235 6505 C 1303 6505 1323 6510 1370 6534 C 1617 6663 1752 7077 1631 7336 C 1561 7485 1439 7554 1310 7517 z" stroke-linecap="round" />
</g>
		<g transform="matrix(0.13 0 0 -0.13 -167.37 -25.53)"  >
<path style="stroke: none; stroke-width: 1; stroke-dasharray: none; stroke-linecap: butt; stroke-dashoffset: 0; stroke-linejoin: miter; stroke-miterlimit: 4; fill: rgb(0,0,0); fill-rule: nonzero; opacity: 1;" vector-effect="non-scaling-stroke"  transform=" translate(-2102.55, -6593.45)" d="M 2153 7046 C 1949 6994 1746 6783 1690 6565 C 1666 6471 1665 6405 1686 6331 C 1706 6260 1744 6204 1799 6165 C 1837 6138 1851 6135 1931 6132 C 2000 6129 2035 6133 2088 6149 C 2262 6202 2421 6362 2502 6565 C 2529 6633 2534 6658 2534 6735 C 2535 6845 2515 6910 2460 6973 C 2438 6998 2401 7025 2378 7035 C 2322 7057 2217 7063 2153 7046 z" stroke-linecap="round" />
</g>
		<g transform="matrix(0.13 0 0 -0.13 -392.51 -21.81)"  >
<path style="stroke: none; stroke-width: 1; stroke-dasharray: none; stroke-linecap: butt; stroke-dashoffset: 0; stroke-linejoin: miter; stroke-miterlimit: 4; fill: rgb(0,0,0); fill-rule: nonzero; opacity: 1;" vector-effect="non-scaling-stroke"  transform=" translate(-414, -6565.51)" d="M 344 7037 C 193 6980 78 6767 78 6545 C 78 6388 127 6256 221 6161 C 283 6098 340 6075 420 6083 C 494 6089 551 6121 614 6191 C 703 6290 750 6426 750 6585 C 750 6740 704 6872 618 6965 C 552 7038 430 7069 344 7037 z" stroke-linecap="round" />
</g>
		<g transform="matrix(0.13 0 0 -0.13 203.82 20.25)"  >
<path style="stroke: none; stroke-width: 1; stroke-dasharray: none; stroke-linecap: butt; stroke-dashoffset: 0; stroke-linejoin: miter; stroke-miterlimit: 4; fill: rgb(0,0,0); fill-rule: nonzero; opacity: 1;" vector-effect="non-scaling-stroke"  transform=" translate(-4886.45, -6250.05)" d="M 4840 7036 C 4641 6994 4372 6832 4185 6643 C 4069 6526 4038 6473 4032 6382 C 4024 6265 4067 6178 4160 6122 C 4236 6077 4313 6055 4486 6030 C 4815 5984 4906 5934 5114 5686 C 5235 5542 5264 5516 5330 5486 C 5516 5402 5661 5482 5721 5702 C 5743 5784 5748 5949 5734 6115 C 5711 6387 5676 6533 5595 6699 C 5517 6859 5385 6970 5212 7022 C 5125 7048 4932 7055 4840 7036 z" stroke-linecap="round" />
</g>
		<g transform="matrix(0.13 0 0 -0.13 390.24 -27.11)"  >
<path style="stroke: none; stroke-width: 1; stroke-dasharray: none; stroke-linecap: butt; stroke-dashoffset: 0; stroke-linejoin: miter; stroke-miterlimit: 4; fill: rgb(0,0,0); fill-rule: nonzero; opacity: 1;" vector-effect="non-scaling-stroke"  transform=" translate(-6284.64, -6605.23)" d="M 6305 6999 C 6161 6951 6044 6868 5958 6752 C 5793 6529 5831 6274 6039 6216 C 6208 6169 6391 6230 6546 6385 C 6610 6449 6636 6485 6671 6555 C 6714 6641 6715 6646 6714 6734 C 6713 6873 6667 6951 6564 6990 C 6504 7012 6361 7017 6305 6999 z" stroke-linecap="round" />
</g>
		<g transform="matrix(0.13 0 0 -0.13 -333.21 150.31)"  >
<path style="stroke: none; stroke-width: 1; stroke-dasharray: none; stroke-linecap: butt; stroke-dashoffset: 0; stroke-linejoin: miter; stroke-miterlimit: 4; fill: rgb(0,0,0); fill-rule: nonzero; opacity: 1;" vector-effect="non-scaling-stroke"  transform=" translate(-858.73, -5274.63)" d="M 780 6050 C 682 6025 469 5917 350 5832 C 235 5750 75 5591 36 5521 C -36 5388 8 5219 135 5140 C 195 5103 282 5080 470 5050 C 806 4997 880 4956 1084 4711 C 1243 4521 1308 4478 1438 4479 C 1646 4481 1742 4701 1710 5104 C 1665 5683 1506 5959 1167 6047 C 1052 6077 891 6078 780 6050 z" stroke-linecap="round" />
</g>
		<g transform="matrix(0.13 0 0 -0.13 -146.36 103.04)"  >
<path style="stroke: none; stroke-width: 1; stroke-dasharray: none; stroke-linecap: butt; stroke-dashoffset: 0; stroke-linejoin: miter; stroke-miterlimit: 4; fill: rgb(0,0,0); fill-rule: nonzero; opacity: 1;" vector-effect="non-scaling-stroke"  transform=" translate(-2260.08, -5629.1)" d="M 2323 6029 C 2161 6001 2003 5889 1900 5729 C 1852 5655 1830 5582 1830 5498 C 1830 5332 1919 5240 2095 5224 C 2274 5207 2498 5337 2614 5524 C 2718 5691 2715 5864 2608 5967 C 2550 6023 2432 6049 2323 6029 z" stroke-linecap="round" />
</g>
		<g transform="matrix(0.13 0 0 -0.13 -136.73 515.21)"  >
<path style="stroke: none; stroke-width: 1; stroke-dasharray: none; stroke-linecap: butt; stroke-dashoffset: 0; stroke-linejoin: miter; stroke-miterlimit: 4; fill: rgb(0,0,0); fill-rule: nonzero; opacity: 1;" vector-effect="non-scaling-stroke"  transform=" translate(-2332.35, -2537.83)" d="M 2299 3031 C 2187 2987 2105 2903 2039 2765 C 1924 2524 1940 2267 2080 2107 C 2102 2082 2139 2055 2162 2045 C 2413 1944 2698 2256 2702 2635 C 2703 2774 2674 2866 2599 2960 C 2532 3043 2406 3073 2299 3031 z" stroke-linecap="round" />
</g>
		<g transform="matrix(0.13 0 0 -0.13 -255.19 574.76)"  >
<path style="stroke: none; stroke-width: 1; stroke-dasharray: none; stroke-linecap: butt; stroke-dashoffset: 0; stroke-linejoin: miter; stroke-miterlimit: 4; fill: rgb(0,0,0); fill-rule: nonzero; opacity: 1;" vector-effect="non-scaling-stroke"  transform=" translate(-1443.9, -2091.26)" d="M 1397 2569 C 1336 2555 1305 2534 1252 2474 C 1158 2369 1107 2230 1107 2075 C 1106 1923 1150 1797 1236 1701 C 1299 1631 1347 1608 1425 1608 C 1707 1610 1880 2067 1719 2384 C 1702 2418 1675 2462 1658 2482 C 1605 2549 1483 2590 1397 2569 z" stroke-linecap="round" />
</g>
		<g transform="matrix(0.13 0 0 -0.13 -29.92 571.65)"  >
<path style="stroke: none; stroke-width: 1; stroke-dasharray: none; stroke-linecap: butt; stroke-dashoffset: 0; stroke-linejoin: miter; stroke-miterlimit: 4; fill: rgb(0,0,0); fill-rule: nonzero; opacity: 1;" vector-effect="non-scaling-stroke"  transform=" translate(-3133.45, -2114.54)" d="M 3141 2560 C 3016 2514 2895 2415 2810 2290 C 2618 2007 2692 1671 2949 1652 C 3178 1635 3425 1822 3531 2092 C 3605 2281 3555 2484 3416 2558 C 3366 2584 3209 2585 3141 2560 z" stroke-linecap="round" />
</g>
		<g transform="matrix(0.13 0 0 -0.13 -196.05 746.9)"  >
<path style="stroke: none; stroke-width: 1; stroke-dasharray: none; stroke-linecap: butt; stroke-dashoffset: 0; stroke-linejoin: miter; stroke-miterlimit: 4; fill: rgb(0,0,0); fill-rule: nonzero; opacity: 1;" vector-effect="non-scaling-stroke"  transform=" translate(-1887.47, -800.21)" d="M 1878 1590 C 1741 1565 1587 1496 1415 1382 C 1297 1304 1094 1109 1060 1040 C 1032 984 1022 879 1040 824 C 1088 677 1192 622 1501 576 C 1822 528 1907 482 2112 238 C 2235 92 2260 68 2329 34 C 2400 -1 2514 -6 2569 24 C 2729 110 2780 383 2719 820 C 2681 1098 2604 1285 2475 1416 C 2399 1493 2305 1547 2195 1575 C 2124 1594 1944 1603 1878 1590 z" stroke-linecap="round" />
</g>
		<g transform="matrix(0.13 0 0 -0.13 -9.22 699.63)"  >
<path style="stroke: none; stroke-width: 1; stroke-dasharray: none; stroke-linecap: butt; stroke-dashoffset: 0; stroke-linejoin: miter; stroke-miterlimit: 4; fill: rgb(0,0,0); fill-rule: nonzero; opacity: 1;" vector-effect="non-scaling-stroke"  transform=" translate(-3288.65, -1154.74)" d="M 3303 1545 C 3157 1505 3014 1393 2921 1245 C 2829 1100 2838 908 2941 815 C 3044 723 3258 730 3428 832 C 3548 905 3669 1057 3704 1179 C 3752 1345 3688 1499 3551 1543 C 3487 1564 3376 1564 3303 1545 z" stroke-linecap="round" />
</g>
</g>
</g>
<g transform="matrix(4.32 0 0 4.32 540 1652.04)" id="a529a648-b53f-4f6a-82ed-e4bce32b5bfa"  >
<path style="stroke: rgb(0,0,0); stroke-width: 0; stroke-dasharray: none; stroke-linecap: butt; stroke-dashoffset: 0; stroke-linejoin: miter; stroke-miterlimit: 4; fill: rgb(0,0,0); fill-rule: nonzero; opacity: 1;" vector-effect="non-scaling-stroke"  transform=" translate(-128, -108)" d="M 226.816 136.022 C 222.864 134.69199999999998 221.302 129.923 223.583 126.43199999999999 C 226.933 121.30099999999999 228.882 115.17299999999999 228.882 108.58699999999999 L 228.882 105.16799999999999 C 228.882 88.58699999999999 216.53900000000002 74.898 200.541 72.76499999999999 C 200.04399999999998 72.64199999999998 195.902 72.46699999999998 195.902 72.46699999999998 C 175.51999999999998 71.17999999999998 175.212 57.088999999999984 175.212 57.088999999999984 L 175.185 57.094999999999985 C 171.66 12.981999999999985 140.457 2.2169999999999845 140.457 2.2169999999999845 C 140.457 2.2169999999999845 139.963 31.499999999999986 119.317 51.22799999999999 C 98.28099999999999 71.32899999999998 72.847 72.02499999999999 58.456999999999994 73.37599999999999 C 38.577 75.243 27.118999999999993 87.823 27.118999999999993 105.16699999999999 L 27.118999999999993 108.58599999999998 C 27.118999999999993 115.17099999999998 29.066999999999993 121.29999999999998 32.41799999999999 126.43099999999998 C 34.69799999999999 129.92299999999997 33.13699999999999 134.69199999999998 29.18499999999999 136.021 C 13.382 141.337 2 156.265 2 173.859 L 2 173.859 C 2 195.90800000000002 19.874 213.78300000000002 41.924 213.78300000000002 L 214.077 213.78300000000002 C 236.126 213.78300000000002 254.001 195.90900000000002 254.001 173.859 L 254.001 173.859 C 254 156.266 242.618 141.337 226.816 136.022 z" stroke-linecap="round" />
</g>
<g transform="matrix(0.24 -0.13 0.13 0.24 195.98 983.71)"  >
<g style="" vector-effect="non-scaling-stroke"   >
		<g transform="matrix(0.13 0 0 -0.13 186.3 -786.33)"  >
<path style="stroke: none; stroke-width: 1; stroke-dasharray: none; stroke-linecap: butt; stroke-dashoffset: 0; stroke-linejoin: miter; stroke-miterlimit: 4; fill: rgb(0,0,0); fill-rule: nonzero; opacity: 1;" vector-effect="non-scaling-stroke"  transform=" translate(-4764.39, -12286.55)" d="M 4753 12785 C 4575 12730 4434 12528 4399 12277 C 4371 12078 4453 11860 4579 11798 C 4649 11763 4746 11766 4824 11804 C 4903 11843 4996 11937 5042 12025 C 5181 12292 5163 12586 4999 12734 C 4927 12799 4849 12815 4753 12785 z" stroke-linecap="round" />
</g>
		<g transform="matrix(0.13 0 0 -0.13 292.86 -729.99)"  >
<path style="stroke: none; stroke-width: 1; stroke-dasharray: none; stroke-linecap: butt; stroke-dashoffset: 0; stroke-linejoin: miter; stroke-miterlimit: 4; fill: rgb(0,0,0); fill-rule: nonzero; opacity: 1;" vector-effect="non-scaling-stroke"  transform=" translate(-5564.98, -11865.33)" d="M 5589 12311 C 5430 12260 5272 12116 5188 11945 C 5149 11866 5135 11802 5135 11705 C 5135 11623 5138 11608 5168 11548 C 5226 11429 5292 11394 5442 11403 C 5518 11407 5539 11413 5617 11450 C 5690 11485 5720 11508 5790 11579 C 5878 11667 5923 11738 5971 11865 C 6001 11944 6003 12071 5976 12150 C 5950 12224 5873 12302 5808 12318 C 5742 12335 5655 12332 5589 12311 z" stroke-linecap="round" />
</g>
		<g transform="matrix(0.13 0 0 -0.13 67.77 -726.04)"  >
<path style="stroke: none; stroke-width: 1; stroke-dasharray: none; stroke-linecap: butt; stroke-dashoffset: 0; stroke-linejoin: miter; stroke-miterlimit: 4; fill: rgb(0,0,0); fill-rule: nonzero; opacity: 1;" vector-effect="non-scaling-stroke"  transform=" translate(-3874.42, -11835.13)" d="M 3797 12306 C 3693 12269 3599 12140 3555 11975 C 3536 11903 3533 11745 3550 11675 C 3583 11541 3686 11398 3776 11364 C 3868 11329 3991 11368 4070 11457 C 4161 11560 4210 11700 4210 11855 C 4210 12120 4071 12321 3890 12319 C 3860 12319 3818 12313 3797 12306 z" stroke-linecap="round" />
</g>
		<g transform="matrix(0.13 0 0 -0.13 125.2 -555.46)"  >
<path style="stroke: none; stroke-width: 1; stroke-dasharray: none; stroke-linecap: butt; stroke-dashoffset: 0; stroke-linejoin: miter; stroke-miterlimit: 4; fill: rgb(0,0,0); fill-rule: nonzero; opacity: 1;" vector-effect="non-scaling-stroke"  transform=" translate(-4318.2, -10547.96)" d="M 4325 11339 C 4187 11318 4022 11247 3857 11136 C 3673 11013 3503 10839 3475 10747 C 3432 10603 3489 10466 3619 10401 C 3687 10367 3769 10346 3915 10325 C 4065 10303 4144 10285 4219 10255 C 4341 10205 4398 10157 4546 9980 C 4609 9904 4678 9830 4699 9816 C 4817 9734 4968 9728 5049 9803 C 5148 9895 5192 10098 5170 10370 C 5147 10666 5112 10817 5028 10990 C 4966 11118 4886 11204 4773 11263 C 4648 11329 4462 11360 4325 11339 z" stroke-linecap="round" />
</g>
		<g transform="matrix(0.13 0 0 -0.13 313.25 -601.3)"  >
<path style="stroke: none; stroke-width: 1; stroke-dasharray: none; stroke-linecap: butt; stroke-dashoffset: 0; stroke-linejoin: miter; stroke-miterlimit: 4; fill: rgb(0,0,0); fill-rule: nonzero; opacity: 1;" vector-effect="non-scaling-stroke"  transform=" translate(-5717.91, -10901.55)" d="M 5752 11296 C 5646 11270 5551 11214 5459 11121 C 5345 11006 5299 10917 5292 10800 C 5286 10695 5302 10642 5356 10581 C 5389 10544 5413 10529 5457 10514 C 5684 10440 5975 10591 6103 10849 C 6143 10930 6145 10937 6145 11029 C 6145 11117 6142 11130 6115 11179 C 6098 11209 6069 11243 6049 11257 C 5974 11306 5859 11321 5752 11296 z" stroke-linecap="round" />
</g>
		<g transform="matrix(0.13 0 0 -0.13 262.17 -213.59)"  >
<path style="stroke: none; stroke-width: 1; stroke-dasharray: none; stroke-linecap: butt; stroke-dashoffset: 0; stroke-linejoin: miter; stroke-miterlimit: 4; fill: rgb(0,0,0); fill-rule: nonzero; opacity: 1;" vector-effect="non-scaling-stroke"  transform=" translate(-5333.34, -7991.07)" d="M 5350 8496 C 5265 8478 5221 8452 5150 8380 C 5078 8308 5016 8196 4984 8080 C 4958 7988 4958 7805 4984 7730 C 5021 7619 5088 7529 5155 7499 C 5220 7469 5312 7474 5388 7510 C 5642 7630 5781 8051 5655 8317 C 5586 8465 5484 8524 5350 8496 z" stroke-linecap="round" />
</g>
		<g transform="matrix(0.13 0 0 -0.13 368.6 -157.15)"  >
<path style="stroke: none; stroke-width: 1; stroke-dasharray: none; stroke-linecap: butt; stroke-dashoffset: 0; stroke-linejoin: miter; stroke-miterlimit: 4; fill: rgb(0,0,0); fill-rule: nonzero; opacity: 1;" vector-effect="non-scaling-stroke"  transform=" translate(-6133.1, -7568.85)" d="M 6210 8030 C 5993 7991 5769 7766 5714 7533 C 5693 7443 5699 7332 5730 7262 C 5763 7186 5834 7125 5907 7110 C 6144 7060 6424 7261 6535 7561 C 6586 7696 6570 7846 6495 7944 C 6443 8012 6318 8050 6210 8030 z" stroke-linecap="round" />
</g>
		<g transform="matrix(0.13 0 0 -0.13 143.26 -153.9)"  >
<path style="stroke: none; stroke-width: 1; stroke-dasharray: none; stroke-linecap: butt; stroke-dashoffset: 0; stroke-linejoin: miter; stroke-miterlimit: 4; fill: rgb(0,0,0); fill-rule: nonzero; opacity: 1;" vector-effect="non-scaling-stroke"  transform=" translate(-4440.68, -7544.12)" d="M 4390 8021 C 4196 7958 4064 7662 4114 7405 C 4143 7260 4229 7126 4326 7079 C 4364 7061 4383 7058 4438 7062 C 4518 7068 4570 7092 4626 7152 C 4721 7250 4770 7373 4777 7530 C 4785 7687 4745 7822 4658 7932 C 4605 7999 4465 8046 4390 8021 z" stroke-linecap="round" />
</g>
		<g transform="matrix(0.13 0 0 -0.13 -274.9 -83.57)"  >
<path style="stroke: none; stroke-width: 1; stroke-dasharray: none; stroke-linecap: butt; stroke-dashoffset: 0; stroke-linejoin: miter; stroke-miterlimit: 4; fill: rgb(0,0,0); fill-rule: nonzero; opacity: 1;" vector-effect="non-scaling-stroke"  transform=" translate(-1305.32, -7015.91)" d="M 1310 7517 C 1188 7482 1091 7397 1023 7264 C 906 7038 905 6794 1021 6621 C 1080 6532 1131 6505 1235 6505 C 1303 6505 1323 6510 1370 6534 C 1617 6663 1752 7077 1631 7336 C 1561 7485 1439 7554 1310 7517 z" stroke-linecap="round" />
</g>
		<g transform="matrix(0.13 0 0 -0.13 -168.81 -27.07)"  >
<path style="stroke: none; stroke-width: 1; stroke-dasharray: none; stroke-linecap: butt; stroke-dashoffset: 0; stroke-linejoin: miter; stroke-miterlimit: 4; fill: rgb(0,0,0); fill-rule: nonzero; opacity: 1;" vector-effect="non-scaling-stroke"  transform=" translate(-2102.55, -6593.45)" d="M 2153 7046 C 1949 6994 1746 6783 1690 6565 C 1666 6471 1665 6405 1686 6331 C 1706 6260 1744 6204 1799 6165 C 1837 6138 1851 6135 1931 6132 C 2000 6129 2035 6133 2088 6149 C 2262 6202 2421 6362 2502 6565 C 2529 6633 2534 6658 2534 6735 C 2535 6845 2515 6910 2460 6973 C 2438 6998 2401 7025 2378 7035 C 2322 7057 2217 7063 2153 7046 z" stroke-linecap="round" />
</g>
		<g transform="matrix(0.13 0 0 -0.13 -393.63 -23.42)"  >
<path style="stroke: none; stroke-width: 1; stroke-dasharray: none; stroke-linecap: butt; stroke-dashoffset: 0; stroke-linejoin: miter; stroke-miterlimit: 4; fill: rgb(0,0,0); fill-rule: nonzero; opacity: 1;" vector-effect="non-scaling-stroke"  transform=" translate(-414, -6565.51)" d="M 344 7037 C 193 6980 78 6767 78 6545 C 78 6388 127 6256 221 6161 C 283 6098 340 6075 420 6083 C 494 6089 551 6121 614 6191 C 703 6290 750 6426 750 6585 C 750 6740 704 6872 618 6965 C 552 7038 430 7069 344 7037 z" stroke-linecap="round" />
</g>
		<g transform="matrix(0.13 0 0 -0.13 200.97 17.6)"  >
<path style="stroke: none; stroke-width: 1; stroke-dasharray: none; stroke-linecap: butt; stroke-dashoffset: 0; stroke-linejoin: miter; stroke-miterlimit: 4; fill: rgb(0,0,0); fill-rule: nonzero; opacity: 1;" vector-effect="non-scaling-stroke"  transform=" translate(-4886.45, -6250.05)" d="M 4840 7036 C 4641 6994 4372 6832 4185 6643 C 4069 6526 4038 6473 4032 6382 C 4024 6265 4067 6178 4160 6122 C 4236 6077 4313 6055 4486 6030 C 4815 5984 4906 5934 5114 5686 C 5235 5542 5264 5516 5330 5486 C 5516 5402 5661 5482 5721 5702 C 5743 5784 5748 5949 5734 6115 C 5711 6387 5676 6533 5595 6699 C 5517 6859 5385 6970 5212 7022 C 5125 7048 4932 7055 4840 7036 z" stroke-linecap="round" />
</g>
		<g transform="matrix(0.13 0 0 -0.13 388.81 -28.46)"  >
<path style="stroke: none; stroke-width: 1; stroke-dasharray: none; stroke-linecap: butt; stroke-dashoffset: 0; stroke-linejoin: miter; stroke-miterlimit: 4; fill: rgb(0,0,0); fill-rule: nonzero; opacity: 1;" vector-effect="non-scaling-stroke"  transform=" translate(-6284.64, -6605.23)" d="M 6305 6999 C 6161 6951 6044 6868 5958 6752 C 5793 6529 5831 6274 6039 6216 C 6208 6169 6391 6230 6546 6385 C 6610 6449 6636 6485 6671 6555 C 6714 6641 6715 6646 6714 6734 C 6713 6873 6667 6951 6564 6990 C 6504 7012 6361 7017 6305 6999 z" stroke-linecap="round" />
</g>
		<g transform="matrix(0.13 0 0 -0.13 -336.07 147.65)"  >
<path style="stroke: none; stroke-width: 1; stroke-dasharray: none; stroke-linecap: butt; stroke-dashoffset: 0; stroke-linejoin: miter; stroke-miterlimit: 4; fill: rgb(0,0,0); fill-rule: nonzero; opacity: 1;" vector-effect="non-scaling-stroke"  transform=" translate(-858.73, -5274.63)" d="M 780 6050 C 682 6025 469 5917 350 5832 C 235 5750 75 5591 36 5521 C -36 5388 8 5219 135 5140 C 195 5103 282 5080 470 5050 C 806 4997 880 4956 1084 4711 C 1243 4521 1308 4478 1438 4479 C 1646 4481 1742 4701 1710 5104 C 1665 5683 1506 5959 1167 6047 C 1052 6077 891 6078 780 6050 z" stroke-linecap="round" />
</g>
		<g transform="matrix(0.13 0 0 -0.13 -147.8 101.69)"  >
<path style="stroke: none; stroke-width: 1; stroke-dasharray: none; stroke-linecap: butt; stroke-dashoffset: 0; stroke-linejoin: miter; stroke-miterlimit: 4; fill: rgb(0,0,0); fill-rule: nonzero; opacity: 1;" vector-effect="non-scaling-stroke"  transform=" translate(-2260.08, -5629.1)" d="M 2323 6029 C 2161 6001 2003 5889 1900 5729 C 1852 5655 1830 5582 1830 5498 C 1830 5332 1919 5240 2095 5224 C 2274 5207 2498 5337 2614 5524 C 2718 5691 2715 5864 2608 5967 C 2550 6023 2432 6049 2323 6029 z" stroke-linecap="round" />
</g>
		<g transform="matrix(0.13 0 0 -0.13 -137.96 513.51)"  >
<path style="stroke: none; stroke-width: 1; stroke-dasharray: none; stroke-linecap: butt; stroke-dashoffset: 0; stroke-linejoin: miter; stroke-miterlimit: 4; fill: rgb(0,0,0); fill-rule: nonzero; opacity: 1;" vector-effect="non-scaling-stroke"  transform=" translate(-2332.35, -2537.83)" d="M 2299 3031 C 2187 2987 2105 2903 2039 2765 C 1924 2524 1940 2267 2080 2107 C 2102 2082 2139 2055 2162 2045 C 2413 1944 2698 2256 2702 2635 C 2703 2774 2674 2866 2599 2960 C 2532 3043 2406 3073 2299 3031 z" stroke-linecap="round" />
</g>
		<g transform="matrix(0.13 0 0 -0.13 -256.31 573.14)"  >
<path style="stroke: none; stroke-width: 1; stroke-dasharray: none; stroke-linecap: butt; stroke-dashoffset: 0; stroke-linejoin: miter; stroke-miterlimit: 4; fill: rgb(0,0,0); fill-rule: nonzero; opacity: 1;" vector-effect="non-scaling-stroke"  transform=" translate(-1443.9, -2091.26)" d="M 1397 2569 C 1336 2555 1305 2534 1252 2474 C 1158 2369 1107 2230 1107 2075 C 1106 1923 1150 1797 1236 1701 C 1299 1631 1347 1608 1425 1608 C 1707 1610 1880 2067 1719 2384 C 1702 2418 1675 2462 1658 2482 C 1605 2549 1483 2590 1397 2569 z" stroke-linecap="round" />
</g>
		<g transform="matrix(0.13 0 0 -0.13 -31.35 570.11)"  >
<path style="stroke: none; stroke-width: 1; stroke-dasharray: none; stroke-linecap: butt; stroke-dashoffset: 0; stroke-linejoin: miter; stroke-miterlimit: 4; fill: rgb(0,0,0); fill-rule: nonzero; opacity: 1;" vector-effect="non-scaling-stroke"  transform=" translate(-3133.45, -2114.54)" d="M 3141 2560 C 3016 2514 2895 2415 2810 2290 C 2618 2007 2692 1671 2949 1652 C 3178 1635 3425 1822 3531 2092 C 3605 2281 3555 2484 3416 2558 C 3366 2584 3209 2585 3141 2560 z" stroke-linecap="round" />
</g>
		<g transform="matrix(0.13 0 0 -0.13 -198.9 744.25)"  >
<path style="stroke: none; stroke-width: 1; stroke-dasharray: none; stroke-linecap: butt; stroke-dashoffset: 0; stroke-linejoin: miter; stroke-miterlimit: 4; fill: rgb(0,0,0); fill-rule: nonzero; opacity: 1;" vector-effect="non-scaling-stroke"  transform=" translate(-1887.47, -800.21)" d="M 1878 1590 C 1741 1565 1587 1496 1415 1382 C 1297 1304 1094 1109 1060 1040 C 1032 984 1022 879 1040 824 C 1088 677 1192 622 1501 576 C 1822 528 1907 482 2112 238 C 2235 92 2260 68 2329 34 C 2400 -1 2514 -6 2569 24 C 2729 110 2780 383 2719 820 C 2681 1098 2604 1285 2475 1416 C 2399 1493 2305 1547 2195 1575 C 2124 1594 1944 1603 1878 1590 z" stroke-linecap="round" />
</g>
		<g transform="matrix(0.13 0 0 -0.13 -10.66 698.27)"  >
<path style="stroke: none; stroke-width: 1; stroke-dasharray: none; stroke-linecap: butt; stroke-dashoffset: 0; stroke-linejoin: miter; stroke-miterlimit: 4; fill: rgb(0,0,0); fill-rule: nonzero; opacity: 1;" vector-effect="non-scaling-stroke"  transform=" translate(-3288.65, -1154.74)" d="M 3303 1545 C 3157 1505 3014 1393 2921 1245 C 2829 1100 2838 908 2941 815 C 3044 723 3258 730 3428 832 C 3548 905 3669 1057 3704 1179 C 3752 1345 3688 1499 3551 1543 C 3487 1564 3376 1564 3303 1545 z" stroke-linecap="round" />
</g>
</g>
</g>
</svg>