<svg width="129" height="80" viewBox="0 0 129 80" fill="none"
    xmlns="http://www.w3.org/2000/svg">
    <path fill-rule="evenodd" clip-rule="evenodd" d="M104.473 0.118477C101.056 0.437462 97.4324 1.89837 94.6818 4.06539C93.3539 5.11157 91.7423 6.91208 90.6876 8.52792C90.5235 8.77919 86.8969 15.9439 82.6285 24.4497L74.8677 39.9145L77.6863 45.5664C79.2365 48.675 80.5147 51.2293 80.5268 51.2428C80.5389 51.2564 84.7833 42.821 89.9588 32.4976C97.6336 17.1891 99.4562 13.6291 99.8415 13.1923C100.429 12.5277 101.327 11.9439 102.21 11.6534C102.853 11.4416 103.087 11.4298 107.369 11.3936C110.089 11.3705 111.854 11.3925 111.854 11.4499C111.854 11.5341 101.2 32.9866 88.7511 57.9671C86.2613 62.9633 84.0628 67.3831 83.8655 67.7891C83.6681 68.1952 83.4835 68.5244 83.4554 68.521C83.3928 68.5133 80.505 62.7409 78.38 58.3756C77.5236 56.6168 75.1314 51.8084 73.0639 47.6904L69.3047 40.203L63.5901 40.2054L57.8753 40.2077L56.5797 42.8703C51.9992 52.2834 49.5191 57.3943 47.0602 62.4874C45.5237 65.67 44.2374 68.305 44.2017 68.3428C44.1661 68.3804 37.9479 55.6342 30.3834 40.0179L16.6297 11.6244L20.7973 11.5933C23.6819 11.5718 25.1384 11.5984 25.5287 11.6801C26.6858 11.9219 27.9012 12.7373 28.5813 13.7282C28.7452 13.9671 32.9537 22.5121 37.9335 32.7172C42.9133 42.9223 46.9967 51.2599 47.0078 51.245C47.019 51.2303 48.2615 48.6757 49.769 45.5682L52.5099 39.9183L50.4623 35.7205C40.2469 14.7787 37.5458 9.2867 37.1384 8.62944C35.2809 5.63228 32.7653 3.37868 29.5975 1.8733C27.4747 0.864569 25.544 0.372487 23.0476 0.203654C21.7498 0.115939 0 0.0508632 0 0.134822C0 0.178376 2.60773 5.56152 19.6309 40.6599C27.4575 56.797 34.9349 72.2158 36.2473 74.9239L38.6335 79.8477L44.1602 79.874L49.6871 79.9002L56.5638 65.7116C60.3461 57.9077 63.4766 51.5305 63.5205 51.5398C63.5642 51.5491 66.7855 57.9564 70.6786 65.7784L77.757 80H83.4607H89.1643L90.0162 78.2487C91.0329 76.1585 97.2766 63.6007 112.036 33.9594C118.042 21.8985 124.249 9.42639 125.828 6.24365C127.409 3.06091 128.769 0.354111 128.85 0.228426L129 0L117.224 0.0138073C110.746 0.0214215 105.008 0.0685287 104.473 0.118477Z" fill="black"/>
</svg>
