<?xml version="1.0" standalone="no"?>
<!DOCTYPE svg PUBLIC "-//W3C//DTD SVG 20010904//EN"
 "http://www.w3.org/TR/2001/REC-SVG-20010904/DTD/svg10.dtd">
<svg version="1.0"
    xmlns="http://www.w3.org/2000/svg" width="495.000000pt" height="561.000000pt" viewBox="0 0 495.000000 561.000000" preserveAspectRatio="xMidYMid meet">

    <g transform="translate(0.000000,561.000000) scale(0.100000,-0.100000)" fill="#000000" stroke="none">
        <path d="M1570 5570 c-92 -56 -110 -79 -110 -143 0 -55 17 -85 57 -106 28 -14
69 -14 96 1 12 6 41 10 64 9 34 -2 47 3 68 23 22 22 25 33 25 100 0 73 -1 76
-38 116 -50 52 -78 52 -162 0z"/>
        <path d="M3193 5544 c-38 -41 -43 -52 -43 -93 0 -81 46 -115 172 -128 43 -4
50 -2 82 31 34 33 36 39 36 99 0 60 -2 65 -38 100 -36 35 -42 37 -102 37 -63
0 -64 -1 -107 -46z"/>
        <path d="M1675 5224 c-109 -23 -270 -100 -346 -166 -64 -56 -85 -88 -114 -178
-10 -30 -30 -80 -45 -110 -61 -124 -89 -279 -90 -496 0 -168 23 -259 115 -451
47 -99 64 -124 145 -207 71 -74 109 -104 169 -135 115 -59 170 -71 344 -71
149 0 149 0 211 32 64 34 172 134 219 205 42 60 101 205 127 306 21 81 22 103
17 315 -5 209 -7 238 -36 362 -42 181 -94 292 -171 363 -172 159 -245 201
-379 223 -85 14 -127 16 -166 8z"/>
        <path d="M3120 5214 c-112 -24 -223 -86 -361 -203 -52 -44 -164 -288 -179
-391 -7 -41 -16 -84 -20 -95 -12 -27 -19 -89 -31 -285 -8 -139 -7 -183 7 -280
20 -141 50 -211 138 -324 83 -106 118 -137 213 -183 l78 -38 180 0 180 0 78
38 c94 46 140 86 221 192 95 125 126 173 173 272 67 140 85 241 81 443 -3 158
-5 171 -42 290 -60 197 -109 293 -202 389 -64 68 -93 89 -168 127 -129 63
-217 76 -346 48z"/>
        <path d="M450 4334 c-35 -32 -40 -41 -40 -81 0 -58 30 -107 81 -133 73 -38
129 -19 150 49 17 56 4 102 -42 155 -53 60 -90 63 -149 10z"/>
        <path d="M4408 4341 c-20 -4 -57 -24 -82 -45 -45 -36 -46 -39 -46 -95 0 -44 5
-62 20 -79 41 -44 158 -17 175 40 4 13 18 36 31 51 31 37 32 86 1 115 -24 23
-37 25 -99 13z"/>
        <path d="M4270 4015 c-86 -14 -242 -102 -343 -194 -40 -36 -140 -178 -178
-253 -83 -162 -140 -457 -126 -656 5 -79 11 -96 59 -192 75 -150 141 -214 311
-300 l128 -65 133 -3 c133 -4 134 -4 213 30 198 86 360 283 412 499 45 189 51
281 30 479 -16 164 -27 206 -86 321 -69 136 -141 218 -232 263 -129 66 -226
87 -321 71z"/>
        <path d="M550 4013 c-175 -31 -325 -154 -418 -344 -58 -119 -86 -208 -103
-326 -16 -107 8 -301 57 -455 57 -184 105 -260 241 -384 80 -73 115 -97 176
-123 71 -29 87 -32 229 -37 l153 -6 83 42 c155 78 239 182 313 385 l33 90 0
230 c1 259 0 266 -82 450 -59 135 -100 195 -199 293 -70 70 -99 91 -176 127
-114 54 -218 74 -307 58z"/>
        <path d="M2485 3284 c-250 -23 -261 -25 -324 -55 -64 -29 -228 -132 -324 -202
-179 -131 -424 -360 -502 -471 -62 -88 -144 -197 -206 -272 -109 -133 -329
-459 -329 -487 0 -6 -13 -40 -29 -76 -47 -106 -121 -364 -121 -421 0 -17 -4
-38 -9 -48 -18 -33 -34 -183 -27 -255 3 -40 10 -126 16 -193 11 -140 28 -185
136 -368 93 -157 135 -197 269 -261 252 -121 503 -174 760 -162 137 7 192 21
325 84 147 69 182 77 365 78 l160 0 90 -42 c50 -23 118 -49 150 -57 33 -8 96
-25 140 -37 69 -20 105 -23 265 -23 226 -1 249 5 475 117 175 87 251 137 335
219 172 168 227 321 237 653 9 296 -10 387 -141 690 -97 223 -119 265 -196
374 -41 59 -102 147 -135 196 -33 50 -92 124 -131 165 -39 41 -77 86 -84 100
-7 14 -27 42 -44 64 -202 251 -305 351 -441 426 -33 19 -73 45 -89 58 -42 34
-332 177 -386 190 -56 13 -152 21 -205 16z m15 -907 c67 -44 98 -72 175 -158
73 -82 91 -192 45 -284 -35 -71 -89 -96 -230 -109 -221 -19 -420 51 -420 149
0 46 63 95 123 95 84 0 181 63 224 144 21 40 10 117 -28 183 -16 29 -29 55
-29 58 0 9 59 -24 140 -78z m401 -568 c57 -19 135 -104 158 -171 23 -66 19
-86 -27 -168 -21 -36 -48 -66 -79 -87 -64 -43 -206 -83 -318 -90 -164 -10
-523 31 -620 71 -22 9 -64 31 -92 48 -62 38 -93 92 -93 163 0 38 7 55 40 100
38 51 55 62 128 78 14 3 54 -7 96 -23 128 -52 177 -60 349 -60 l159 0 71 41
c40 23 83 52 97 64 52 46 75 52 131 34z m316 -531 c92 -95 116 -197 71 -306
-21 -51 -24 -54 -116 -97 -161 -77 -175 -79 -591 -101 -176 -10 -574 13 -676
38 -104 26 -186 70 -240 130 -39 43 -44 55 -50 113 -5 44 -3 75 5 95 20 48 90
116 143 139 48 20 61 19 107 -8 165 -97 538 -162 765 -132 185 24 397 90 458
143 46 39 75 36 124 -14z"/>
    </g>
</svg>
